{"accessors":[{"bufferView":2,"componentType":5126,"count":1264,"max":[22.204835891723633,51.566856384277344,-27.989200592041016],"min":[7.204835891723633,36.566856384277344,-42.989200592041016],"type":"VEC3"},{"bufferView":2,"byteOffset":15168,"componentType":5126,"count":1264,"max":[1,1,1],"min":[-1,-1,-1],"type":"VEC3"},{"bufferView":1,"componentType":5126,"count":1264,"max":[0.875,0.9707136154174805],"min":[0.125,-8.261777221553468e-13],"type":"VEC2"},{"bufferView":0,"componentType":5125,"count":5946,"type":"SCALAR"},{"bufferView":2,"byteOffset":30336,"componentType":5126,"count":1574,"max":[22.204835891723633,51.566856384277344,-27.989200592041016],"min":[7.204835891723633,36.566856384277344,-42.989200592041016],"type":"VEC3"},{"bufferView":2,"byteOffset":49224,"componentType":5126,"count":1574,"max":[1,1,1],"min":[-1,-1,-1],"type":"VEC3"},{"bufferView":1,"byteOffset":10112,"componentType":5126,"count":1574,"max":[0.9980080127716064,0.9980080127716064],"min":[0.0018926184857264161,0.0018169139511883259],"type":"VEC2"},{"bufferView":0,"byteOffset":23784,"componentType":5125,"count":4974,"type":"SCALAR"}],"asset":{"extras":{"author":"qudwjdroal (https://sketchfab.com/qudwjdroal)","license":"CC-BY-4.0 (http://creativecommons.org/licenses/by/4.0/)","source":"https://sketchfab.com/3d-models/tlqkf-0e3882ee7f9c400fbecdc8f9f319aeac","title":"tlqkf"},"generator":"Sketchfab-16.12.0","version":"2.0"},"bufferViews":[{"buffer":0,"byteLength":43680,"name":"floatBufferViews","target":34963},{"buffer":0,"byteLength":22704,"byteOffset":43680,"byteStride":8,"name":"floatBufferViews","target":34962},{"buffer":0,"byteLength":68112,"byteOffset":66384,"byteStride":12,"name":"floatBufferViews","target":34962}],"buffers":[{"byteLength":134496,"uri":"data:application/octet-stream;base64,"}],"materials":[{"doubleSided":true,"name":"phong1","pbrMetallicRoughness":{"baseColorFactor":[0,0,0,1],"metallicFactor":0,"roughnessFactor":0.8796406002852392}},{"doubleSided":true,"name":"phong2","pbrMetallicRoughness":{"baseColorFactor":[0.511905,0.511905,0.511905,1],"metallicFactor":0,"roughnessFactor":0.8810792884997279}}],"meshes":[{"name":"pasted__polySurface4_phong1_0","primitives":[{"attributes":{"NORMAL":1,"POSITION":0,"TEXCOORD_0":2},"indices":3,"material":0,"mode":4}]},{"name":"pasted__polySurface4_phong2_0","primitives":[{"attributes":{"NORMAL":5,"POSITION":4,"TEXCOORD_0":6},"indices":7,"material":1,"mode":4}]}],"nodes":[{"children":[1],"matrix":[1,0,0,0,0,2.220446049250313e-16,-1,0,0,1,2.220446049250313e-16,0,0,0,0,1],"name":"Sketchfab_model"},{"children":[2],"matrix":[0.009999999776482582,0,0,0,0,0,0.009999999776482582,0,0,-0.009999999776482582,0,0,0,0,0,1],"name":"9583506f02c94d4fbe7a5851d1f5e19e.fbx"},{"children":[3],"name":"RootNode"},{"children":[4],"matrix":[1,0,0,0,0,1,0,0,0,0,1,0,-15,-36.75102615356445,35,1],"name":"group"},{"children":[5,6],"name":"pasted__polySurface4"},{"mesh":0,"name":"pasted__polySurface4_phong1_0"},{"mesh":1,"name":"pasted__polySurface4_phong2_0"}],"scene":0,"scenes":[{"name":"Sketchfab_Scene","nodes":[0]}]}